<svg xmlns="http://www.w3.org/2000/svg" width="62" height="21" viewBox="0 0 62 21" fill="none">
    <script xmlns="" id="eppiocemhmnlbhjplcgkofciiegomcon" />
    <script xmlns="" />
    <script xmlns="" />
    <path
        d="M13.8553 19.8123H8.72353V12.5486H5.19177V19.8123H0V0.617188H5.19177V8.15923H8.72353V0.617188H13.8553V19.8123V19.8123Z"
        fill="#082621" />
    <path
        d="M13.8553 19.8123H8.72353V12.5486H5.19177V19.8123H0V0.617188H5.19177V8.15923H8.72353V0.617188H13.8553V19.8123V19.8123Z"
        fill="#DAF2EE" />
    <path
        d="M13.8553 19.8123H8.72353V12.5486H5.19177V19.8123H0V0.617188H5.19177V8.15923H8.72353V0.617188H13.8553V19.8123V19.8123Z"
        fill="#17E5C3" />
    <path
        d="M13.8553 19.8123H8.72353V12.5486H5.19177V19.8123H0V0.617188H5.19177V8.15923H8.72353V0.617188H13.8553V19.8123V19.8123Z"
        fill="#26080A" />
    <path
        d="M13.8553 19.8123H8.72353V12.5486H5.19177V19.8123H0V0.617188H5.19177V8.15923H8.72353V0.617188H13.8553V19.8123V19.8123Z"
        fill="#E5DADB" />
    <path
        d="M13.8553 19.8123H8.72353V12.5486H5.19177V19.8123H0V0.617188H5.19177V8.15923H8.72353V0.617188H13.8553V19.8123V19.8123Z"
        fill="#675380" />
    <path
        d="M19.7725 20.1226C17.3772 20.1226 16.1802 18.7625 16.1802 16.0423V5.00781H21.3119V14.7755C21.3119 15.2912 21.5331 15.5484 21.9761 15.5484C22.539 15.5484 23.0125 15.4044 23.3949 15.1159V5.00781H28.4661V19.7516H23.6666V18.6697H23.5461C22.4384 19.6389 21.1808 20.1226 19.7725 20.1226Z"
        fill="#082621" />
    <path
        d="M19.7725 20.1226C17.3772 20.1226 16.1802 18.7625 16.1802 16.0423V5.00781H21.3119V14.7755C21.3119 15.2912 21.5331 15.5484 21.9761 15.5484C22.539 15.5484 23.0125 15.4044 23.3949 15.1159V5.00781H28.4661V19.7516H23.6666V18.6697H23.5461C22.4384 19.6389 21.1808 20.1226 19.7725 20.1226Z"
        fill="#DAF2EE" />
    <path
        d="M19.7725 20.1226C17.3772 20.1226 16.1802 18.7625 16.1802 16.0423V5.00781H21.3119V14.7755C21.3119 15.2912 21.5331 15.5484 21.9761 15.5484C22.539 15.5484 23.0125 15.4044 23.3949 15.1159V5.00781H28.4661V19.7516H23.6666V18.6697H23.5461C22.4384 19.6389 21.1808 20.1226 19.7725 20.1226Z"
        fill="#17E5C3" />
    <path
        d="M19.7725 20.1226C17.3772 20.1226 16.1802 18.7625 16.1802 16.0423V5.00781H21.3119V14.7755C21.3119 15.2912 21.5331 15.5484 21.9761 15.5484C22.539 15.5484 23.0125 15.4044 23.3949 15.1159V5.00781H28.4661V19.7516H23.6666V18.6697H23.5461C22.4384 19.6389 21.1808 20.1226 19.7725 20.1226Z"
        fill="#26080A" />
    <path
        d="M19.7725 20.1226C17.3772 20.1226 16.1802 18.7625 16.1802 16.0423V5.00781H21.3119V14.7755C21.3119 15.2912 21.5331 15.5484 21.9761 15.5484C22.539 15.5484 23.0125 15.4044 23.3949 15.1159V5.00781H28.4661V19.7516H23.6666V18.6697H23.5461C22.4384 19.6389 21.1808 20.1226 19.7725 20.1226Z"
        fill="#E5DADB" />
    <path
        d="M19.7725 20.1226C17.3772 20.1226 16.1802 18.7625 16.1802 16.0423V5.00781H21.3119V14.7755C21.3119 15.2912 21.5331 15.5484 21.9761 15.5484C22.539 15.5484 23.0125 15.4044 23.3949 15.1159V5.00781H28.4661V19.7516H23.6666V18.6697H23.5461C22.4384 19.6389 21.1808 20.1226 19.7725 20.1226Z"
        fill="#675380" />
    <path
        d="M30.0244 9.38144C30.0244 7.88761 30.4721 6.72326 31.3674 5.8884C32.2626 5.05415 33.4956 4.63672 35.065 4.63672C36.6344 4.63672 38.2238 4.84272 39.8344 5.25473L39.3215 9.5513C37.2691 9.07725 35.8903 8.84053 35.1862 8.84053C34.7638 8.84053 34.5521 9.01581 34.5521 9.36578C34.5521 9.59287 34.7832 9.79827 35.2462 9.98379C36.8562 10.5819 38.0685 11.262 38.8832 12.024C39.6985 12.7865 40.1056 13.9304 40.1056 15.455C40.1056 16.9801 39.7232 18.139 38.9585 18.9323C38.1932 19.7256 37.0215 20.1226 35.4421 20.1226C33.8621 20.1226 32.2879 19.9166 30.7179 19.5046L31.0497 15.3315C33.0615 15.888 34.365 16.1663 34.9585 16.1663C35.5521 16.1663 35.8491 16.0224 35.8491 15.7338C35.8491 15.4453 35.6274 15.2188 35.185 15.0538C33.3938 14.3532 32.0856 13.6063 31.2609 12.813C30.4368 12.0191 30.0244 10.8759 30.0244 9.38144Z"
        fill="#082621" />
    <path
        d="M30.0244 9.38144C30.0244 7.88761 30.4721 6.72326 31.3674 5.8884C32.2626 5.05415 33.4956 4.63672 35.065 4.63672C36.6344 4.63672 38.2238 4.84272 39.8344 5.25473L39.3215 9.5513C37.2691 9.07725 35.8903 8.84053 35.1862 8.84053C34.7638 8.84053 34.5521 9.01581 34.5521 9.36578C34.5521 9.59287 34.7832 9.79827 35.2462 9.98379C36.8562 10.5819 38.0685 11.262 38.8832 12.024C39.6985 12.7865 40.1056 13.9304 40.1056 15.455C40.1056 16.9801 39.7232 18.139 38.9585 18.9323C38.1932 19.7256 37.0215 20.1226 35.4421 20.1226C33.8621 20.1226 32.2879 19.9166 30.7179 19.5046L31.0497 15.3315C33.0615 15.888 34.365 16.1663 34.9585 16.1663C35.5521 16.1663 35.8491 16.0224 35.8491 15.7338C35.8491 15.4453 35.6274 15.2188 35.185 15.0538C33.3938 14.3532 32.0856 13.6063 31.2609 12.813C30.4368 12.0191 30.0244 10.8759 30.0244 9.38144Z"
        fill="#DAF2EE" />
    <path
        d="M30.0244 9.38144C30.0244 7.88761 30.4721 6.72326 31.3674 5.8884C32.2626 5.05415 33.4956 4.63672 35.065 4.63672C36.6344 4.63672 38.2238 4.84272 39.8344 5.25473L39.3215 9.5513C37.2691 9.07725 35.8903 8.84053 35.1862 8.84053C34.7638 8.84053 34.5521 9.01581 34.5521 9.36578C34.5521 9.59287 34.7832 9.79827 35.2462 9.98379C36.8562 10.5819 38.0685 11.262 38.8832 12.024C39.6985 12.7865 40.1056 13.9304 40.1056 15.455C40.1056 16.9801 39.7232 18.139 38.9585 18.9323C38.1932 19.7256 37.0215 20.1226 35.4421 20.1226C33.8621 20.1226 32.2879 19.9166 30.7179 19.5046L31.0497 15.3315C33.0615 15.888 34.365 16.1663 34.9585 16.1663C35.5521 16.1663 35.8491 16.0224 35.8491 15.7338C35.8491 15.4453 35.6274 15.2188 35.185 15.0538C33.3938 14.3532 32.0856 13.6063 31.2609 12.813C30.4368 12.0191 30.0244 10.8759 30.0244 9.38144Z"
        fill="#17E5C3" />
    <path
        d="M30.0244 9.38144C30.0244 7.88761 30.4721 6.72326 31.3674 5.8884C32.2626 5.05415 33.4956 4.63672 35.065 4.63672C36.6344 4.63672 38.2238 4.84272 39.8344 5.25473L39.3215 9.5513C37.2691 9.07725 35.8903 8.84053 35.1862 8.84053C34.7638 8.84053 34.5521 9.01581 34.5521 9.36578C34.5521 9.59287 34.7832 9.79827 35.2462 9.98379C36.8562 10.5819 38.0685 11.262 38.8832 12.024C39.6985 12.7865 40.1056 13.9304 40.1056 15.455C40.1056 16.9801 39.7232 18.139 38.9585 18.9323C38.1932 19.7256 37.0215 20.1226 35.4421 20.1226C33.8621 20.1226 32.2879 19.9166 30.7179 19.5046L31.0497 15.3315C33.0615 15.888 34.365 16.1663 34.9585 16.1663C35.5521 16.1663 35.8491 16.0224 35.8491 15.7338C35.8491 15.4453 35.6274 15.2188 35.185 15.0538C33.3938 14.3532 32.0856 13.6063 31.2609 12.813C30.4368 12.0191 30.0244 10.8759 30.0244 9.38144Z"
        fill="#26080A" />
    <path
        d="M30.0244 9.38144C30.0244 7.88761 30.4721 6.72326 31.3674 5.8884C32.2626 5.05415 33.4956 4.63672 35.065 4.63672C36.6344 4.63672 38.2238 4.84272 39.8344 5.25473L39.3215 9.5513C37.2691 9.07725 35.8903 8.84053 35.1862 8.84053C34.7638 8.84053 34.5521 9.01581 34.5521 9.36578C34.5521 9.59287 34.7832 9.79827 35.2462 9.98379C36.8562 10.5819 38.0685 11.262 38.8832 12.024C39.6985 12.7865 40.1056 13.9304 40.1056 15.455C40.1056 16.9801 39.7232 18.139 38.9585 18.9323C38.1932 19.7256 37.0215 20.1226 35.4421 20.1226C33.8621 20.1226 32.2879 19.9166 30.7179 19.5046L31.0497 15.3315C33.0615 15.888 34.365 16.1663 34.9585 16.1663C35.5521 16.1663 35.8491 16.0224 35.8491 15.7338C35.8491 15.4453 35.6274 15.2188 35.185 15.0538C33.3938 14.3532 32.0856 13.6063 31.2609 12.813C30.4368 12.0191 30.0244 10.8759 30.0244 9.38144Z"
        fill="#E5DADB" />
    <path
        d="M30.0244 9.38144C30.0244 7.88761 30.4721 6.72326 31.3674 5.8884C32.2626 5.05415 33.4956 4.63672 35.065 4.63672C36.6344 4.63672 38.2238 4.84272 39.8344 5.25473L39.3215 9.5513C37.2691 9.07725 35.8903 8.84053 35.1862 8.84053C34.7638 8.84053 34.5521 9.01581 34.5521 9.36578C34.5521 9.59287 34.7832 9.79827 35.2462 9.98379C36.8562 10.5819 38.0685 11.262 38.8832 12.024C39.6985 12.7865 40.1056 13.9304 40.1056 15.455C40.1056 16.9801 39.7232 18.139 38.9585 18.9323C38.1932 19.7256 37.0215 20.1226 35.4421 20.1226C33.8621 20.1226 32.2879 19.9166 30.7179 19.5046L31.0497 15.3315C33.0615 15.888 34.365 16.1663 34.9585 16.1663C35.5521 16.1663 35.8491 16.0224 35.8491 15.7338C35.8491 15.4453 35.6274 15.2188 35.185 15.0538C33.3938 14.3532 32.0856 13.6063 31.2609 12.813C30.4368 12.0191 30.0244 10.8759 30.0244 9.38144Z"
        fill="#675380" />
    <path
        d="M46.7551 6.08917C47.8616 5.12059 49.0592 4.6363 50.3469 4.6363C51.6345 4.6363 52.5451 4.95072 53.0787 5.57898C53.6116 6.20783 53.8787 7.15051 53.8787 8.40702V19.8125H48.7469V10.1689C48.7469 9.65388 48.5251 9.39608 48.0828 9.39608C47.5192 9.39608 47.0463 9.54064 46.664 9.82856V19.8125H41.5928V0H46.634V6.08917H46.7551Z"
        fill="#082621" />
    <path
        d="M46.7551 6.08917C47.8616 5.12059 49.0592 4.6363 50.3469 4.6363C51.6345 4.6363 52.5451 4.95072 53.0787 5.57898C53.6116 6.20783 53.8787 7.15051 53.8787 8.40702V19.8125H48.7469V10.1689C48.7469 9.65388 48.5251 9.39608 48.0828 9.39608C47.5192 9.39608 47.0463 9.54064 46.664 9.82856V19.8125H41.5928V0H46.634V6.08917H46.7551Z"
        fill="#DAF2EE" />
    <path
        d="M46.7551 6.08917C47.8616 5.12059 49.0592 4.6363 50.3469 4.6363C51.6345 4.6363 52.5451 4.95072 53.0787 5.57898C53.6116 6.20783 53.8787 7.15051 53.8787 8.40702V19.8125H48.7469V10.1689C48.7469 9.65388 48.5251 9.39608 48.0828 9.39608C47.5192 9.39608 47.0463 9.54064 46.664 9.82856V19.8125H41.5928V0H46.634V6.08917H46.7551Z"
        fill="#17E5C3" />
    <path
        d="M46.7551 6.08917C47.8616 5.12059 49.0592 4.6363 50.3469 4.6363C51.6345 4.6363 52.5451 4.95072 53.0787 5.57898C53.6116 6.20783 53.8787 7.15051 53.8787 8.40702V19.8125H48.7469V10.1689C48.7469 9.65388 48.5251 9.39608 48.0828 9.39608C47.5192 9.39608 47.0463 9.54064 46.664 9.82856V19.8125H41.5928V0H46.634V6.08917H46.7551Z"
        fill="#26080A" />
    <path
        d="M46.7551 6.08917C47.8616 5.12059 49.0592 4.6363 50.3469 4.6363C51.6345 4.6363 52.5451 4.95072 53.0787 5.57898C53.6116 6.20783 53.8787 7.15051 53.8787 8.40702V19.8125H48.7469V10.1689C48.7469 9.65388 48.5251 9.39608 48.0828 9.39608C47.5192 9.39608 47.0463 9.54064 46.664 9.82856V19.8125H41.5928V0H46.634V6.08917H46.7551Z"
        fill="#E5DADB" />
    <path
        d="M46.7551 6.08917C47.8616 5.12059 49.0592 4.6363 50.3469 4.6363C51.6345 4.6363 52.5451 4.95072 53.0787 5.57898C53.6116 6.20783 53.8787 7.15051 53.8787 8.40702V19.8125H48.7469V10.1689C48.7469 9.65388 48.5251 9.39608 48.0828 9.39608C47.5192 9.39608 47.0463 9.54064 46.664 9.82856V19.8125H41.5928V0H46.634V6.08917H46.7551Z"
        fill="#675380" />
    <path
        d="M55.9932 16.4129V0H60.9738V14.7751C60.9738 15.1256 61.0491 15.3732 61.2002 15.5172C61.3514 15.6617 61.6179 15.7334 62.0002 15.7334L61.6079 20.1228H59.9479C58.6196 20.1228 57.6285 19.839 56.9743 19.2728C56.3202 18.7054 55.9932 17.7525 55.9932 16.4129Z"
        fill="#082621" />
    <path
        d="M55.9932 16.4129V0H60.9738V14.7751C60.9738 15.1256 61.0491 15.3732 61.2002 15.5172C61.3514 15.6617 61.6179 15.7334 62.0002 15.7334L61.6079 20.1228H59.9479C58.6196 20.1228 57.6285 19.839 56.9743 19.2728C56.3202 18.7054 55.9932 17.7525 55.9932 16.4129Z"
        fill="#DAF2EE" />
    <path
        d="M55.9932 16.4129V0H60.9738V14.7751C60.9738 15.1256 61.0491 15.3732 61.2002 15.5172C61.3514 15.6617 61.6179 15.7334 62.0002 15.7334L61.6079 20.1228H59.9479C58.6196 20.1228 57.6285 19.839 56.9743 19.2728C56.3202 18.7054 55.9932 17.7525 55.9932 16.4129Z"
        fill="#17E5C3" />
    <path
        d="M55.9932 16.4129V0H60.9738V14.7751C60.9738 15.1256 61.0491 15.3732 61.2002 15.5172C61.3514 15.6617 61.6179 15.7334 62.0002 15.7334L61.6079 20.1228H59.9479C58.6196 20.1228 57.6285 19.839 56.9743 19.2728C56.3202 18.7054 55.9932 17.7525 55.9932 16.4129Z"
        fill="#26080A" />
    <path
        d="M55.9932 16.4129V0H60.9738V14.7751C60.9738 15.1256 61.0491 15.3732 61.2002 15.5172C61.3514 15.6617 61.6179 15.7334 62.0002 15.7334L61.6079 20.1228H59.9479C58.6196 20.1228 57.6285 19.839 56.9743 19.2728C56.3202 18.7054 55.9932 17.7525 55.9932 16.4129Z"
        fill="#E5DADB" />
    <path
        d="M55.9932 16.4129V0H60.9738V14.7751C60.9738 15.1256 61.0491 15.3732 61.2002 15.5172C61.3514 15.6617 61.6179 15.7334 62.0002 15.7334L61.6079 20.1228H59.9479C58.6196 20.1228 57.6285 19.839 56.9743 19.2728C56.3202 18.7054 55.9932 17.7525 55.9932 16.4129Z"
        fill="#675380" />
</svg>